<svg id="Layer_1" data-name="Layer 1" xmlns="http://www.w3.org/2000/svg" xmlns:xlink="http://www.w3.org/1999/xlink" viewBox="0 0 512 512"><defs><linearGradient id="linear-gradient" x1="72.08" y1="388.89" x2="72.08" y2="318.72" gradientUnits="userSpaceOnUse"><stop offset="0" stop-color="#a6a8ab"/><stop offset="1" stop-color="#dbdcdd"/></linearGradient><linearGradient id="linear-gradient-2" x1="154.74" y1="368.32" x2="154.74" y2="298.15" xlink:href="#linear-gradient"/><linearGradient id="linear-gradient-3" x1="90.16" y1="458.84" x2="90.16" y2="388.67" xlink:href="#linear-gradient"/><linearGradient id="linear-gradient-4" x1="171.19" y1="438.27" x2="171.19" y2="368.1" xlink:href="#linear-gradient"/><linearGradient id="linear-gradient-5" x1="229.1" y1="351.86" x2="229.1" y2="281.69" xlink:href="#linear-gradient"/><linearGradient id="linear-gradient-6" x1="252.21" y1="421.81" x2="252.21" y2="351.64" xlink:href="#linear-gradient"/><linearGradient id="linear-gradient-7" x1="199.48" y1="499.99" x2="199.48" y2="429.82" xlink:href="#linear-gradient"/><linearGradient id="linear-gradient-8" x1="324.5" y1="360.09" x2="324.5" y2="289.92" xlink:href="#linear-gradient"/><linearGradient id="linear-gradient-9" x1="296.35" y1="475.3" x2="296.35" y2="405.13" xlink:href="#linear-gradient"/><linearGradient id="linear-gradient-10" x1="373.97" y1="413.58" x2="373.97" y2="343.41" xlink:href="#linear-gradient"/><linearGradient id="linear-gradient-11" x1="256" y1="306.6" x2="256" y2="11.53" xlink:href="#linear-gradient"/></defs><title>clouds_rain</title><path d="M46.85,362.52c-6.52,23.7,18.07,35,34.66,19.55,14.22-13.63,14.81-45,16.88-63.1C79.14,328.75,53.07,339.71,46.85,362.52Z" fill-rule="evenodd" fill="url(#linear-gradient)"/><path d="M51.59,362.23c4.74-13.33,15.11-21.63,31.7-29.32C67.88,344.45,59,352.45,55.73,366.38c-2.37,9.18-3.26,10.37-4.15,10.37C49.81,376.74,49.22,369.34,51.59,362.23Z" fill="#dedfdd" fill-rule="evenodd"/><path d="M129.5,340.9c-6.52,23.7,18.07,35,34.66,19.55,14.22-13.33,14.81-44.73,16.89-63.1C161.79,307.12,135.72,318.38,129.5,340.9Z" fill-rule="evenodd" fill="url(#linear-gradient-2)"/><path d="M134.24,340.6c4.74-13.33,15.11-21.63,31.7-29.33-15.41,11.56-24.29,19.56-27.55,33.77-2.37,8.89-3.26,10.37-4.15,10.07C132.46,355.12,131.87,347.71,134.24,340.6Z" fill="#dedfdd" fill-rule="evenodd"/><path d="M64.92,431.85c-6.52,23.7,18.37,35,34.66,19.56,14.52-13.33,14.81-44.73,16.89-63.11C97.51,398.08,71.14,409,64.92,431.85Z" fill-rule="evenodd" fill="url(#linear-gradient-3)"/><path d="M69.66,431.55c4.74-13.33,15.41-21.63,31.7-29.33-15.11,11.55-24,19.55-27.55,33.77-2.07,8.88-3.26,10.37-4.15,10.07C67.88,446.07,67.29,438.66,69.66,431.55Z" fill="#dedfdd" fill-rule="evenodd"/><path d="M145.8,412c-6.52,23.7,18.37,35,35,19.55,14.22-13.33,14.81-44.73,16.89-63.1C178.38,378.23,152,389.19,145.8,412Z" fill-rule="evenodd" fill="url(#linear-gradient-4)"/><path d="M150.83,411.7c4.44-13.33,15.11-21.63,31.7-29.33-15.41,11.56-24.29,19.55-27.85,33.77-2.07,8.89-3,10.37-4.15,10.07C149.06,426.22,148.46,418.81,150.83,411.7Z" fill="#dedfdd" fill-rule="evenodd"/><path d="M203.86,324.31c-6.52,23.7,18.07,35,34.66,19.55,14.52-13.33,14.81-44.74,16.89-63.1C236.15,290.83,210.08,301.79,203.86,324.31Z" fill-rule="evenodd" fill="url(#linear-gradient-5)"/><path d="M208.6,324c4.74-13.33,15.41-21.63,31.7-29.33-15.11,11.56-24.29,19.85-27.55,33.78-2.37,8.89-3.26,10.37-4.15,10.37C206.82,338.53,206.23,331.12,208.6,324Z" fill="#dedfdd" fill-rule="evenodd"/><path d="M227,393.93c-6.52,23.7,18.37,35,34.66,19.55,14.52-13.33,14.82-45,16.89-63.1C259.26,360.15,233.19,371.11,227,393.93Z" fill-rule="evenodd" fill="url(#linear-gradient-6)"/><path d="M231.71,393.63c4.74-13.33,15.4-21.63,31.7-29.33-15.11,11.56-24.29,19.55-27.55,33.48-2.37,9.19-3.26,10.37-4.15,10.37C229.93,408.15,229.34,400.74,231.71,393.63Z" fill="#dedfdd" fill-rule="evenodd"/><path d="M174.23,474.21c-6.52,23.7,18.37,35,34.66,19.55,14.52-13.33,14.81-44.73,16.89-63.1C206.82,440.73,180.46,451.7,174.23,474.21Z" fill-rule="evenodd" fill="url(#linear-gradient-7)"/><path d="M179,473.92c4.74-13.33,15.41-21.63,31.7-29.33-15.11,11.55-24.29,19.85-27.55,33.77-2.37,8.89-3.26,10.37-4.15,10.37C177.2,488.43,176.61,481,179,473.92Z" fill="#dedfdd" fill-rule="evenodd"/><path d="M299.25,333.19c-6.52,23.7,18.37,35,35,19.55,14.22-13.33,14.81-45,16.59-63.1C331.84,299.42,305.48,310.38,299.25,333.19Z" fill-rule="evenodd" fill="url(#linear-gradient-8)"/><path d="M304.29,332.9c4.44-13.33,15.11-21.63,31.7-29.33-15.41,11.56-24.29,19.55-27.85,33.48-2.07,9.18-3,10.37-4.15,10.37C302.22,347.41,301.63,340,304.29,332.9Z" fill="#dedfdd" fill-rule="evenodd"/><path d="M271.11,447.25c-6.52,23.7,18.07,35,34.66,19.55,14.22-13.33,14.81-44.73,16.88-63.1C303.4,413.48,277.33,424.74,271.11,447.25Z" fill-rule="evenodd" fill="url(#linear-gradient-9)"/><path d="M275.85,447c4.74-13.33,15.11-21.63,31.7-29.33-15.41,11.55-24.29,19.55-27.55,33.77-2.37,8.88-3.26,10.37-4.15,10.07C274.07,461.48,273.48,454.07,275.85,447Z" fill="#dedfdd" fill-rule="evenodd"/><path d="M348.73,386.22c-6.52,23.7,18.37,35,34.66,19.55,14.52-13.33,14.82-44.73,16.89-63.1C381.31,352.75,354.95,363.71,348.73,386.22Z" fill-rule="evenodd" fill="url(#linear-gradient-10)"/><path d="M353.47,385.93c4.74-13,15.41-21.33,31.7-29.33-15.11,11.55-24,19.85-27.55,33.77-2.37,8.89-3.26,10.37-4.15,10.37C351.69,400.45,351.1,393,353.47,385.93Z" fill="#dedfdd" fill-rule="evenodd"/><path d="M241.19,11.17A117.16,117.16,0,0,1,334.8,57.38C426.64,58.57,501,114,501,181.81c0,68.44-75.84,124.43-168.86,124.43-48,0-91.25-14.81-122.06-38.51-20.15,23.11-52.44,38.51-89.17,38.51C60.47,306.24,11,264.46,11,213.51c0-51.25,49.47-92.73,109.91-92.73h4.44C127.43,60.05,178.68,11.17,241.19,11.17Z" fill-rule="evenodd" fill="url(#linear-gradient-11)"/><path d="M240.89,23a111.5,111.5,0,0,1,89.76,45.33C418.64,69.53,490,123.74,490,190.1v6.52c-4.74-63.4-74.36-114.06-159.38-115.24a111.5,111.5,0,0,0-89.76-45.33C181,36.05,131.58,84,129.5,143.3h-4.15c-55.4,0-101,37.33-104.87,84.14a45.74,45.74,0,0,1-.3-6.52c0-49.77,47.11-90.65,105.17-90.65h4.15C131.58,70.71,181,23,240.89,23Z" fill="#dedfdd" fill-rule="evenodd"/></svg>